<svg width="398" height="163" viewBox="0 0 398 163" fill="none" xmlns="http://www.w3.org/2000/svg">
<g clip-path="url(#clip0)">
<path d="M94.9562 123.792L88.3913 108.646C86.0525 103.251 94.217 99.7022 96.5591 105.106L103.124 120.252C105.463 125.647 97.2981 129.195 94.9562 123.792Z" fill="#FB3732"/>
<path d="M120.939 101.845L105.587 95.7779C100.117 93.6159 103.383 85.3347 108.859 87.4989L124.211 93.5665C129.681 95.7282 126.415 104.01 120.939 101.845Z" fill="#FB3732"/>
<path d="M105.107 66.3509L120.252 59.7863C125.649 57.4468 129.195 65.6127 123.793 67.954L108.647 74.5188C103.251 76.8582 99.7048 68.6924 105.107 66.3509Z" fill="#FB3732"/>
<path d="M91.4495 132.881C88.9754 127.172 91.6064 120.516 97.3144 118.041C103.023 115.567 109.68 118.198 112.154 123.906C114.628 129.615 111.997 136.271 106.289 138.746C100.581 141.219 93.9241 138.589 91.4495 132.881Z" fill="#FF423D"/>
<path d="M124.887 110.751C119.101 108.464 116.254 101.897 118.541 96.1112C120.828 90.3253 127.395 87.4787 133.181 89.7655C138.967 92.0522 141.814 98.6196 139.527 104.406C137.24 110.191 130.673 113.038 124.887 110.751Z" fill="#FF423D"/>
<path d="M118.043 65.5951C115.569 59.8869 118.2 53.2304 123.908 50.7561C129.616 48.2821 136.273 50.9126 138.747 56.621C141.221 62.3292 138.59 68.9858 132.882 71.4601C127.174 73.9343 120.517 71.3036 118.043 65.5951Z" fill="#FF423D"/>
<path d="M90.0033 59.8256C87.7172 58.9221 86.5962 56.336 87.4997 54.0499L93.5669 38.6989C95.7288 33.2289 104.01 36.4954 101.846 41.971L95.7786 57.3225C94.8753 59.6087 92.2894 60.7292 90.0033 59.8256Z" fill="#FF423D"/>
<path d="M99.3427 36.1954L90.0032 59.8258C92.2893 60.7294 94.8754 59.6085 95.7789 57.3224L101.846 41.9711C102.75 39.6848 101.629 37.099 99.3427 36.1954Z" fill="#FB3732"/>
<path d="M61.0639 120.937L67.1313 105.585C69.2932 100.115 77.5746 103.382 75.4104 108.857L69.343 124.209C67.1813 129.679 58.8998 126.412 61.0639 120.937Z" fill="#FF423D"/>
<path d="M72.9069 103.082L63.5675 126.712C65.8536 127.616 68.4397 126.495 69.3432 124.209L75.4106 108.858C76.3141 106.571 75.193 103.986 72.9069 103.082Z" fill="#FB3732"/>
<path d="M66.3514 57.8021L59.7865 42.6567C57.4477 37.2611 65.6122 33.7127 67.9543 39.1165L74.5193 54.2616C76.8584 59.6576 68.6932 63.2052 66.3514 57.8021Z" fill="#FF423D"/>
<path d="M54.051 75.4092L38.6991 69.3417C33.229 67.1797 36.4954 58.8986 41.9712 61.0628L57.323 67.1303C62.793 69.2919 59.5265 77.5733 54.051 75.4092Z" fill="#FF423D"/>
<path d="M39.1172 94.9536L54.2626 88.3887C59.6591 86.0491 63.2052 94.2152 57.803 96.5565L42.6577 103.121C37.3056 105.441 33.6461 97.3252 39.1172 94.9536Z" fill="#FF423D"/>
<path d="M96.1121 44.3691C90.3263 42.0823 87.4795 35.5148 89.7662 29.729C92.053 23.9431 98.6203 21.0965 104.406 23.3834C110.192 25.6701 113.039 32.2375 110.752 38.0234C108.466 43.8089 101.898 46.6558 96.1121 44.3691Z" fill="#FF5E5B"/>
<path d="M58.5038 139.525C52.7179 137.238 49.871 130.67 52.1578 124.884C54.4445 119.099 61.0121 116.252 66.798 118.539C72.5838 120.826 75.4306 127.393 73.1439 133.179C70.8572 138.965 64.2896 141.811 58.5038 139.525Z" fill="#FF5E5B"/>
<path d="M66.798 118.539L58.5038 139.525C64.2896 141.811 70.8571 138.965 73.1439 133.179C75.4306 127.393 72.5838 120.826 66.798 118.539Z" fill="#FF423D"/>
<path d="M50.7561 39.0014C48.2759 33.28 50.8987 26.6425 56.621 24.1623C62.3288 21.6886 68.9863 24.3191 71.4604 30.0273L71.4606 30.0274C73.9347 35.7355 71.3038 42.3921 65.5957 44.8664C59.888 47.3406 53.2306 44.7099 50.7561 39.0014Z" fill="#FF5E5B"/>
<path d="M29.7293 73.142C23.9434 70.8552 21.0965 64.2879 23.3832 58.5022C25.6699 52.7164 32.2376 49.8698 38.0234 52.1565C43.8093 54.4433 46.6557 61.0104 44.3689 66.7964C42.0821 72.5823 35.5149 75.4287 29.7293 73.142Z" fill="#FF5E5B"/>
<path d="M24.1629 106.287C21.6827 100.565 24.3053 93.9276 30.0277 91.4477C35.7357 88.9736 42.393 91.6045 44.8671 97.3127C47.3412 103.021 44.7104 109.677 39.0025 112.152C33.2952 114.625 26.6374 111.995 24.1629 106.287Z" fill="#FF5E5B"/>
<path d="M69.6349 111.361C53.1439 104.843 45.0298 86.1242 51.5474 69.6335C58.0651 53.1428 76.7842 45.0292 93.2753 51.5469C109.766 58.0647 117.88 76.7837 111.363 93.2744C104.845 109.765 86.126 117.879 69.6349 111.361Z" fill="#FF5E5B"/>
<path d="M104.406 23.3834L96.1122 44.3691C101.898 46.6558 108.466 43.8092 110.752 38.0234C113.039 32.2377 110.192 25.6701 104.406 23.3834Z" fill="#FF423D"/>
<path d="M93.2753 51.5467L69.6348 111.361C86.1258 117.879 104.845 109.765 111.363 93.2746C117.88 76.7839 109.766 58.0645 93.2753 51.5467Z" fill="#FF423D"/>
<path d="M76.1703 94.8254C68.7972 91.9113 65.1693 83.542 68.0834 76.169C70.9974 68.7961 79.3668 65.1685 86.7399 68.0825C94.113 70.9966 97.7408 79.366 94.8268 86.7389C91.9128 94.1118 83.5433 97.7395 76.1703 94.8254Z" fill="#FF423D"/>
<path d="M86.7399 68.0825L76.1703 94.8254C83.5433 97.7395 91.9128 94.1118 94.8268 86.7389C97.7408 79.3659 94.1129 70.9966 86.7399 68.0825Z" fill="#FB3732"/>
</g>
<path d="M163.337 111.378C163.098 113.941 162.215 115.912 160.688 117.291C159.161 118.658 157.088 119.342 154.467 119.342C152.701 119.342 151.135 118.897 149.768 118.009C148.412 117.109 147.358 115.838 146.606 114.198C145.854 112.546 145.472 110.66 145.461 108.541V104.696C145.461 102.577 145.831 100.685 146.572 99.022C147.312 97.3472 148.366 96.054 149.733 95.1426C151.112 94.2311 152.69 93.7754 154.467 93.7754C157.065 93.7754 159.133 94.459 160.671 95.8262C162.209 97.1934 163.098 99.153 163.337 101.705H162.414C162.152 99.415 161.354 97.6776 160.021 96.4927C158.688 95.2964 156.837 94.6982 154.467 94.6982C152.052 94.6982 150.098 95.6097 148.605 97.4326C147.124 99.2555 146.384 101.699 146.384 104.764V108.421C146.384 110.381 146.714 112.118 147.375 113.634C148.036 115.138 148.981 116.311 150.212 117.154C151.454 117.997 152.872 118.419 154.467 118.419C156.848 118.419 158.706 117.832 160.039 116.659C161.383 115.485 162.175 113.725 162.414 111.378H163.337ZM167.233 109.396C167.233 107.63 167.569 106.046 168.242 104.645C168.925 103.232 169.882 102.132 171.113 101.346C172.355 100.56 173.756 100.167 175.317 100.167C176.866 100.167 178.256 100.549 179.487 101.312C180.717 102.075 181.674 103.158 182.358 104.559C183.053 105.96 183.406 107.538 183.417 109.293V110.113C183.417 111.891 183.081 113.48 182.409 114.881C181.737 116.283 180.78 117.376 179.538 118.163C178.308 118.949 176.912 119.342 175.351 119.342C173.79 119.342 172.389 118.954 171.147 118.18C169.917 117.405 168.959 116.323 168.276 114.933C167.592 113.531 167.245 111.959 167.233 110.216V109.396ZM168.156 110.113C168.156 111.651 168.458 113.064 169.062 114.352C169.677 115.628 170.526 116.625 171.608 117.342C172.702 118.06 173.95 118.419 175.351 118.419C177.459 118.419 179.174 117.627 180.495 116.043C181.828 114.46 182.495 112.42 182.495 109.925V109.396C182.495 107.88 182.187 106.479 181.572 105.191C180.957 103.904 180.102 102.901 179.008 102.184C177.926 101.454 176.695 101.09 175.317 101.09C173.209 101.09 171.489 101.893 170.156 103.5C168.823 105.106 168.156 107.128 168.156 109.566V110.113ZM193.073 117.53L199.721 100.509H200.712L193.518 119H192.612L185.434 100.509H186.425L193.073 117.53ZM205.498 119H204.575V100.509H205.498V119ZM204.096 94.7324C204.096 94.4704 204.187 94.2482 204.37 94.0659C204.552 93.8722 204.774 93.7754 205.036 93.7754C205.298 93.7754 205.52 93.8722 205.703 94.0659C205.896 94.2482 205.993 94.4704 205.993 94.7324C205.993 94.9945 205.896 95.2166 205.703 95.3989C205.52 95.5812 205.298 95.6724 205.036 95.6724C204.774 95.6724 204.552 95.5812 204.37 95.3989C204.187 95.2166 204.096 94.9945 204.096 94.7324ZM210.71 109.566C210.71 106.616 211.331 104.314 212.573 102.662C213.815 100.999 215.518 100.167 217.683 100.167C219.073 100.167 220.297 100.48 221.357 101.107C222.428 101.734 223.294 102.668 223.955 103.91V92.75H224.877V119H223.955V116.043C223.328 117.092 222.468 117.906 221.374 118.487C220.28 119.057 219.038 119.342 217.648 119.342C215.507 119.342 213.815 118.493 212.573 116.795C211.331 115.098 210.71 112.768 210.71 109.806V109.566ZM211.667 109.925C211.667 112.546 212.185 114.619 213.222 116.146C214.259 117.661 215.729 118.419 217.631 118.419C219.158 118.419 220.463 118.083 221.545 117.411C222.627 116.727 223.431 115.73 223.955 114.42V105.755C222.895 102.645 220.799 101.09 217.666 101.09C215.774 101.09 214.299 101.836 213.239 103.329C212.191 104.821 211.667 107.02 211.667 109.925ZM236.875 108.08H228.842V107.157H236.875V108.08ZM249.453 119H248.53V95.2793L241.386 97.9624V96.9541L249.265 94.0488H249.453V119ZM273.413 106.627C272.809 107.937 271.869 108.997 270.593 109.806C269.328 110.603 267.898 111.002 266.303 111.002C264.936 111.002 263.706 110.637 262.612 109.908C261.518 109.168 260.664 108.154 260.048 106.866C259.433 105.579 259.125 104.166 259.125 102.628C259.125 100.999 259.439 99.5062 260.065 98.1504C260.692 96.7832 261.569 95.7122 262.697 94.9375C263.825 94.1628 265.073 93.7754 266.44 93.7754C269.003 93.7754 270.957 94.6128 272.302 96.2876C273.646 97.951 274.324 100.355 274.335 103.5V106.354C274.335 110.558 273.401 113.765 271.533 115.975C269.664 118.174 266.913 119.296 263.278 119.342H262.458L262.492 118.419H263.227C266.554 118.385 269.083 117.371 270.815 115.377C272.547 113.383 273.413 110.466 273.413 106.627ZM266.303 110.079C267.989 110.079 269.482 109.583 270.781 108.592C272.08 107.601 272.957 106.285 273.413 104.645V103.585C273.413 100.702 272.814 98.5036 271.618 96.9883C270.433 95.4616 268.73 94.6982 266.508 94.6982C265.289 94.6982 264.184 95.0571 263.193 95.7749C262.202 96.4927 261.427 97.4725 260.869 98.7144C260.322 99.9448 260.048 101.249 260.048 102.628C260.048 103.984 260.316 105.243 260.852 106.405C261.387 107.556 262.128 108.456 263.073 109.105C264.019 109.754 265.096 110.079 266.303 110.079ZM304.208 95.04H295.151V119H294.228V95.04H285.17V94.1172H304.208V95.04ZM314.941 101.175L313.745 101.073C312.172 101.073 310.856 101.585 309.797 102.611C308.737 103.625 308.042 105.049 307.712 106.883V119H306.789V100.509H307.712V104.354C308.213 103.067 308.965 102.047 309.968 101.295C310.97 100.543 312.229 100.167 313.745 100.167C314.28 100.167 314.713 100.23 315.043 100.355L314.941 101.175ZM329.775 119C329.547 118.214 329.433 117.086 329.433 115.616C328.704 116.801 327.707 117.718 326.442 118.368C325.178 119.017 323.748 119.342 322.153 119.342C320.444 119.342 319.065 118.88 318.017 117.958C316.98 117.023 316.462 115.81 316.462 114.317C316.462 112.62 317.225 111.264 318.752 110.25C320.29 109.225 322.329 108.701 324.87 108.678H329.433V105.978C329.433 104.428 328.943 103.226 327.963 102.372C326.995 101.517 325.605 101.09 323.793 101.09C322.107 101.09 320.7 101.523 319.572 102.389C318.444 103.255 317.88 104.326 317.88 105.602L316.958 105.567C316.958 104.063 317.618 102.787 318.94 101.739C320.262 100.691 321.879 100.167 323.793 100.167C325.787 100.167 327.371 100.668 328.544 101.671C329.718 102.662 330.322 104.063 330.356 105.875V114.71C330.356 116.738 330.515 118.117 330.834 118.846V119H329.775ZM322.153 118.436C323.885 118.436 325.371 118.049 326.613 117.274C327.867 116.499 328.806 115.411 329.433 114.01V109.618H325.161C322.517 109.618 320.495 110.142 319.094 111.19C317.954 112.044 317.385 113.11 317.385 114.386C317.385 115.514 317.835 116.471 318.735 117.257C319.635 118.043 320.774 118.436 322.153 118.436ZM342.592 118.419C344.267 118.419 345.646 117.975 346.728 117.086C347.822 116.197 348.42 114.967 348.522 113.395H349.445C349.354 115.183 348.665 116.625 347.377 117.718C346.09 118.801 344.495 119.342 342.592 119.342C340.279 119.342 338.439 118.504 337.072 116.83C335.716 115.155 335.039 112.882 335.039 110.011V109.396C335.039 106.593 335.716 104.354 337.072 102.679C338.439 101.004 340.268 100.167 342.558 100.167C344.518 100.167 346.136 100.754 347.412 101.927C348.688 103.101 349.366 104.662 349.445 106.61H348.522C348.443 104.946 347.856 103.613 346.762 102.611C345.68 101.597 344.278 101.09 342.558 101.09C340.496 101.09 338.878 101.836 337.705 103.329C336.542 104.81 335.961 106.872 335.961 109.515V110.113C335.961 112.7 336.548 114.733 337.722 116.214C338.907 117.684 340.53 118.419 342.592 118.419ZM357.734 109.002L357.7 109.037L355.017 111.344V119H354.094V92.75H355.017V110.335L357.187 108.285L365.595 100.509H366.911L358.417 108.387L367.441 119H366.245L357.734 109.002ZM376.977 119.342C375.485 119.342 374.112 118.943 372.858 118.146C371.617 117.337 370.642 116.231 369.936 114.83C369.23 113.429 368.876 111.874 368.876 110.165V109.396C368.876 107.687 369.218 106.12 369.902 104.696C370.585 103.272 371.525 102.161 372.722 101.363C373.918 100.566 375.222 100.167 376.635 100.167C378.697 100.167 380.384 100.902 381.694 102.372C383.004 103.841 383.659 105.772 383.659 108.165V109.139H369.799V110.147C369.799 111.651 370.113 113.047 370.739 114.334C371.377 115.611 372.249 116.613 373.354 117.342C374.471 118.071 375.678 118.436 376.977 118.436C378.219 118.436 379.273 118.231 380.139 117.821C381.016 117.399 381.791 116.756 382.463 115.89L383.112 116.351C381.734 118.345 379.689 119.342 376.977 119.342ZM376.635 101.09C374.835 101.09 373.308 101.762 372.055 103.106C370.802 104.439 370.067 106.143 369.851 108.216H382.736V107.994C382.736 106.741 382.469 105.579 381.933 104.508C381.409 103.425 380.68 102.588 379.746 101.996C378.823 101.392 377.786 101.09 376.635 101.09ZM396.118 101.175L394.921 101.073C393.349 101.073 392.033 101.585 390.974 102.611C389.914 103.625 389.219 105.049 388.889 106.883V119H387.966V100.509H388.889V104.354C389.39 103.067 390.142 102.047 391.145 101.295C392.147 100.543 393.406 100.167 394.921 100.167C395.457 100.167 395.89 100.23 396.22 100.355L396.118 101.175Z" fill="black"/>
<path d="M163.337 111.378L164.333 111.471L164.435 110.378H163.337V111.378ZM160.688 117.291L161.355 118.036L161.358 118.033L160.688 117.291ZM149.768 118.009L149.214 118.842L149.223 118.847L149.768 118.009ZM146.606 114.198L145.696 114.612L145.697 114.614L146.606 114.198ZM145.461 108.541H144.461L144.461 108.546L145.461 108.541ZM146.572 99.022L147.485 99.4287L147.486 99.4264L146.572 99.022ZM149.733 95.1426L149.182 94.3084L149.179 94.3105L149.733 95.1426ZM163.337 101.705V102.705H164.435L164.333 101.612L163.337 101.705ZM162.414 101.705L161.421 101.819L161.522 102.705H162.414V101.705ZM160.021 96.4927L159.354 97.2369L159.357 97.2401L160.021 96.4927ZM148.605 97.4326L147.832 96.7991L147.829 96.802L148.605 97.4326ZM147.375 113.634L146.458 114.034L146.459 114.036L147.375 113.634ZM150.212 117.154L149.647 117.979L149.65 117.982L150.212 117.154ZM160.039 116.659L159.381 115.905L159.378 115.908L160.039 116.659ZM162.414 111.378V110.378H161.511L161.419 111.277L162.414 111.378ZM162.341 111.285C162.119 113.664 161.315 115.378 160.018 116.549L161.358 118.033C163.115 116.447 164.076 114.218 164.333 111.471L162.341 111.285ZM160.021 116.546C158.724 117.707 156.912 118.342 154.467 118.342V120.342C157.263 120.342 159.598 119.609 161.355 118.036L160.021 116.546ZM154.467 118.342C152.878 118.342 151.504 117.945 150.313 117.17L149.223 118.847C150.765 119.85 152.525 120.342 154.467 120.342V118.342ZM150.321 117.176C149.137 116.39 148.198 115.271 147.515 113.781L145.697 114.614C146.518 116.405 147.687 117.828 149.214 118.842L150.321 117.176ZM147.516 113.783C146.832 112.28 146.472 110.537 146.461 108.536L144.461 108.546C144.473 110.783 144.876 112.812 145.696 114.612L147.516 113.783ZM146.461 108.541V104.696H144.461V108.541H146.461ZM146.461 104.696C146.461 102.694 146.81 100.945 147.485 99.4287L145.658 98.6153C144.852 100.426 144.461 102.459 144.461 104.696H146.461ZM147.486 99.4264C148.159 97.9049 149.097 96.7688 150.288 95.9746L149.179 94.3105C147.636 95.3392 146.466 96.7895 145.657 98.6176L147.486 99.4264ZM150.285 95.9767C151.487 95.1817 152.871 94.7754 154.467 94.7754V92.7754C152.509 92.7754 150.737 93.2805 149.182 94.3084L150.285 95.9767ZM154.467 94.7754C156.886 94.7754 158.696 95.4084 160.007 96.5736L161.335 95.0788C159.57 93.5095 157.243 92.7754 154.467 92.7754V94.7754ZM160.007 96.5736C161.312 97.7338 162.12 99.4337 162.341 101.798L164.333 101.612C164.076 98.8723 163.106 96.6529 161.335 95.0788L160.007 96.5736ZM163.337 100.705H162.414V102.705H163.337V100.705ZM163.408 101.591C163.126 99.1303 162.251 97.1369 160.686 95.7453L159.357 97.2401C160.458 98.2182 161.178 99.6998 161.421 101.819L163.408 101.591ZM160.689 95.7484C159.12 94.3403 157.002 93.6982 154.467 93.6982V95.6982C156.672 95.6982 158.257 96.2525 159.354 97.2369L160.689 95.7484ZM154.467 93.6982C151.761 93.6982 149.52 94.7375 147.832 96.7991L149.379 98.0661C150.676 96.4819 152.343 95.6982 154.467 95.6982V93.6982ZM147.829 96.802C146.164 98.8513 145.384 101.54 145.384 104.764H147.384C147.384 101.858 148.084 99.6598 149.382 98.0632L147.829 96.802ZM145.384 104.764V108.421H147.384V104.764H145.384ZM145.384 108.421C145.384 110.493 145.733 112.371 146.458 114.034L148.292 113.234C147.695 111.866 147.384 110.269 147.384 108.421H145.384ZM146.459 114.036C147.187 115.693 148.247 117.02 149.647 117.979L150.777 116.329C149.716 115.602 148.884 114.583 148.291 113.232L146.459 114.036ZM149.65 117.982C151.068 118.944 152.685 119.419 154.467 119.419V117.419C153.059 117.419 151.839 117.05 150.774 116.327L149.65 117.982ZM154.467 119.419C157.008 119.419 159.129 118.791 160.699 117.409L159.378 115.908C158.282 116.873 156.689 117.419 154.467 117.419V119.419ZM160.696 117.412C162.286 116.024 163.152 113.995 163.409 111.479L161.419 111.277C161.197 113.455 160.479 114.946 159.381 115.905L160.696 117.412ZM162.414 112.378H163.337V110.378H162.414V112.378ZM168.242 104.645L167.342 104.209L167.34 104.212L168.242 104.645ZM171.113 101.346L170.578 100.501L170.574 100.503L171.113 101.346ZM179.487 101.312L178.96 102.162L179.487 101.312ZM182.358 104.559L181.459 104.998L181.462 105.003L182.358 104.559ZM183.417 109.293H184.418L184.417 109.286L183.417 109.293ZM179.538 118.163L179.003 117.318L179 117.32L179.538 118.163ZM171.147 118.18L170.614 119.026L170.618 119.028L171.147 118.18ZM168.276 114.933L167.377 115.371L167.379 115.374L168.276 114.933ZM167.233 110.216L166.233 110.216L166.233 110.222L167.233 110.216ZM169.062 114.352L168.157 114.776L168.161 114.786L169.062 114.352ZM171.608 117.342L171.056 118.176L171.06 118.178L171.608 117.342ZM180.495 116.043L179.73 115.399L179.727 115.403L180.495 116.043ZM179.008 102.184L178.45 103.013L178.46 103.02L179.008 102.184ZM168.233 109.396C168.233 107.759 168.544 106.326 169.143 105.077L167.34 104.212C166.595 105.766 166.233 107.5 166.233 109.396H168.233ZM169.142 105.08C169.751 103.821 170.588 102.868 171.651 102.189L170.574 100.503C169.176 101.397 168.099 102.643 167.342 104.209L169.142 105.08ZM171.648 102.191C172.719 101.513 173.933 101.167 175.317 101.167V99.167C173.579 99.167 171.99 99.6075 170.578 100.501L171.648 102.191ZM175.317 101.167C176.694 101.167 177.899 101.504 178.96 102.162L180.014 100.462C178.614 99.5938 177.039 99.167 175.317 99.167V101.167ZM178.96 102.162C180.018 102.818 180.852 103.752 181.459 104.998L183.257 104.121C182.497 102.563 181.417 101.333 180.014 100.462L178.96 102.162ZM181.462 105.003C182.082 106.253 182.407 107.678 182.418 109.299L184.417 109.286C184.405 107.399 184.024 105.668 183.254 104.115L181.462 105.003ZM182.417 109.293V110.113H184.417V109.293H182.417ZM182.417 110.113C182.417 111.762 182.106 113.201 181.508 114.449L183.311 115.314C184.056 113.759 184.417 112.019 184.417 110.113H182.417ZM181.508 114.449C180.912 115.691 180.077 116.638 179.003 117.318L180.073 119.008C181.483 118.115 182.562 116.874 183.311 115.314L181.508 114.449ZM179 117.32C177.941 117.996 176.735 118.342 175.351 118.342V120.342C177.089 120.342 178.674 119.901 180.076 119.005L179 117.32ZM175.351 118.342C173.964 118.342 172.749 118 171.676 117.331L170.618 119.028C172.029 119.909 173.616 120.342 175.351 120.342V118.342ZM171.68 117.333C170.616 116.664 169.781 115.726 169.173 114.491L167.379 115.374C168.138 116.919 169.217 118.146 170.614 119.026L171.68 117.333ZM169.175 114.494C168.564 113.243 168.244 111.821 168.233 110.209L166.233 110.222C166.246 112.097 166.62 113.82 167.377 115.371L169.175 114.494ZM168.233 110.216V109.396H166.233V110.216H168.233ZM167.156 110.113C167.156 111.786 167.486 113.345 168.157 114.776L169.967 113.927C169.431 112.783 169.156 111.517 169.156 110.113H167.156ZM168.161 114.786C168.847 116.209 169.81 117.35 171.056 118.176L172.161 116.509C171.242 115.899 170.507 115.047 169.963 113.917L168.161 114.786ZM171.06 118.178C172.328 119.011 173.769 119.419 175.351 119.419V117.419C174.13 117.419 173.076 117.109 172.157 116.506L171.06 118.178ZM175.351 119.419C177.748 119.419 179.747 118.501 181.263 116.684L179.727 115.403C178.6 116.753 177.17 117.419 175.351 117.419V119.419ZM181.26 116.687C182.775 114.888 183.495 112.606 183.495 109.925H181.495C181.495 112.235 180.882 114.031 179.73 115.399L181.26 116.687ZM183.495 109.925V109.396H181.495V109.925H183.495ZM183.495 109.396C183.495 107.74 183.158 106.191 182.474 104.76L180.67 105.623C181.216 106.767 181.495 108.02 181.495 109.396H183.495ZM182.474 104.76C181.787 103.324 180.817 102.174 179.557 101.348L178.46 103.02C179.387 103.628 180.126 104.484 180.67 105.623L182.474 104.76ZM179.567 101.354C178.31 100.507 176.883 100.09 175.317 100.09V102.09C176.508 102.09 177.542 102.401 178.45 103.013L179.567 101.354ZM175.317 100.09C172.915 100.09 170.911 101.023 169.386 102.861L170.925 104.138C172.066 102.763 173.503 102.09 175.317 102.09V100.09ZM169.386 102.861C167.88 104.676 167.156 106.936 167.156 109.566H169.156C169.156 107.32 169.766 105.536 170.925 104.138L169.386 102.861ZM167.156 109.566V110.113H169.156V109.566H167.156ZM193.073 117.53L192.142 117.894L193.073 120.279L194.005 117.894L193.073 117.53ZM199.721 100.509V99.5088H199.038L198.79 100.145L199.721 100.509ZM200.712 100.509L201.644 100.871L202.175 99.5088H200.712V100.509ZM193.518 119V120H194.202L194.45 119.363L193.518 119ZM192.612 119L191.68 119.362L191.927 120H192.612V119ZM185.434 100.509V99.5088H183.973L184.502 100.871L185.434 100.509ZM186.425 100.509L187.357 100.145L187.108 99.5088H186.425V100.509ZM194.005 117.894L200.653 100.873L198.79 100.145L192.142 117.166L194.005 117.894ZM199.721 101.509H200.712V99.5088H199.721V101.509ZM199.78 100.146L192.586 118.637L194.45 119.363L201.644 100.871L199.78 100.146ZM193.518 118H192.612V120H193.518V118ZM193.544 118.638L186.366 100.147L184.502 100.871L191.68 119.362L193.544 118.638ZM185.434 101.509H186.425V99.5088H185.434V101.509ZM185.494 100.873L192.142 117.894L194.005 117.166L187.357 100.145L185.494 100.873ZM205.498 119V120H206.498V119H205.498ZM204.575 119H203.575V120H204.575V119ZM204.575 100.509V99.5088H203.575V100.509H204.575ZM205.498 100.509H206.498V99.5088H205.498V100.509ZM204.37 94.0659L205.077 94.773L205.087 94.7623L205.098 94.7513L204.37 94.0659ZM205.703 94.0659L204.974 94.7513L204.995 94.7733L205.017 94.7941L205.703 94.0659ZM205.703 95.3989L205.017 94.6707L205.006 94.6811L204.996 94.6918L205.703 95.3989ZM205.498 118H204.575V120H205.498V118ZM205.575 119V100.509H203.575V119H205.575ZM204.575 101.509H205.498V99.5088H204.575V101.509ZM204.498 100.509V119H206.498V100.509H204.498ZM205.096 94.7324C205.096 94.7251 205.097 94.7242 205.096 94.7284C205.095 94.7327 205.093 94.74 205.09 94.7488C205.086 94.7576 205.082 94.765 205.078 94.7702C205.075 94.7753 205.074 94.7761 205.077 94.773L203.663 93.3588C203.289 93.7321 203.096 94.2101 203.096 94.7324H205.096ZM205.098 94.7513C205.102 94.7465 205.102 94.7473 205.097 94.751C205.092 94.7548 205.084 94.7599 205.073 94.7647C205.062 94.7695 205.051 94.7725 205.043 94.7741C205.035 94.7757 205.032 94.7754 205.036 94.7754V92.7754C204.494 92.7754 204.009 92.9895 203.641 93.3806L205.098 94.7513ZM205.036 94.7754C205.04 94.7754 205.037 94.7757 205.029 94.7741C205.021 94.7725 205.011 94.7695 205 94.7647C204.989 94.7599 204.98 94.7548 204.975 94.751C204.97 94.7473 204.97 94.7465 204.974 94.7513L206.431 93.3806C206.063 92.9895 205.579 92.7754 205.036 92.7754V94.7754ZM205.017 94.7941C205.022 94.7986 205.021 94.7986 205.018 94.7935C205.014 94.7882 205.009 94.7799 205.004 94.7688C204.999 94.7578 204.996 94.7475 204.994 94.7395C204.993 94.7316 204.993 94.7288 204.993 94.7324H206.993C206.993 94.19 206.779 93.7058 206.388 93.3377L205.017 94.7941ZM204.993 94.7324C204.993 94.7361 204.993 94.7332 204.994 94.7254C204.996 94.7173 204.999 94.707 205.004 94.696C205.009 94.685 205.014 94.6766 205.018 94.6713C205.021 94.6662 205.022 94.6663 205.017 94.6707L206.388 96.1271C206.779 95.7591 206.993 95.2749 206.993 94.7324H204.993ZM204.996 94.6918C204.992 94.6949 204.993 94.6935 204.998 94.6901C205.004 94.6866 205.011 94.6825 205.02 94.6788C205.029 94.6752 205.036 94.6734 205.04 94.6725C205.044 94.6717 205.043 94.6724 205.036 94.6724V96.6724C205.558 96.6724 206.036 96.4793 206.41 96.106L204.996 94.6918ZM205.036 94.6724C205.029 94.6724 205.028 94.6717 205.032 94.6725C205.036 94.6734 205.044 94.6752 205.053 94.6788C205.061 94.6825 205.069 94.6866 205.074 94.6901C205.079 94.6935 205.08 94.6949 205.077 94.6918L203.663 96.106C204.036 96.4793 204.514 96.6724 205.036 96.6724V94.6724ZM205.077 94.6918C205.074 94.6888 205.075 94.6896 205.078 94.6947C205.082 94.6999 205.086 94.7072 205.09 94.716C205.093 94.7248 205.095 94.7321 205.096 94.7365C205.097 94.7407 205.096 94.7398 205.096 94.7324H203.096C203.096 95.2548 203.289 95.7328 203.663 96.106L205.077 94.6918ZM212.573 102.662L213.372 103.263L213.374 103.26L212.573 102.662ZM221.357 101.107L220.848 101.968L220.852 101.97L221.357 101.107ZM223.955 103.91L223.072 104.379L224.955 103.91H223.955ZM223.955 92.75V91.75H222.955V92.75H223.955ZM224.877 92.75H225.877V91.75H224.877V92.75ZM224.877 119V120H225.877V119H224.877ZM223.955 119H222.955V120H223.955V119ZM223.955 116.043H224.955V112.422L223.096 115.53L223.955 116.043ZM221.374 118.487L221.836 119.374L221.843 119.37L221.374 118.487ZM213.222 116.146L212.395 116.708L212.397 116.711L213.222 116.146ZM221.545 117.411L222.073 118.26L222.079 118.256L221.545 117.411ZM223.955 114.42L224.883 114.791L224.955 114.613V114.42H223.955ZM223.955 105.755H224.955V105.59L224.901 105.433L223.955 105.755ZM213.239 103.329L212.424 102.75L212.421 102.754L213.239 103.329ZM211.71 109.566C211.71 106.742 212.306 104.682 213.372 103.263L211.773 102.061C210.356 103.947 209.71 106.489 209.71 109.566H211.71ZM213.374 103.26C214.418 101.862 215.818 101.167 217.683 101.167V99.167C215.218 99.167 213.211 100.135 211.771 102.064L213.374 103.26ZM217.683 101.167C218.917 101.167 219.962 101.444 220.848 101.968L221.866 100.246C220.633 99.5171 219.228 99.167 217.683 99.167V101.167ZM220.852 101.97C221.742 102.491 222.486 103.279 223.072 104.379L224.837 103.44C224.101 102.057 223.113 100.976 221.862 100.244L220.852 101.97ZM224.955 103.91V92.75H222.955V103.91H224.955ZM223.955 93.75H224.877V91.75H223.955V93.75ZM223.877 92.75V119H225.877V92.75H223.877ZM224.877 118H223.955V120H224.877V118ZM224.955 119V116.043H222.955V119H224.955ZM223.096 115.53C222.565 116.42 221.84 117.107 220.905 117.604L221.843 119.37C223.096 118.705 224.091 117.764 224.813 116.557L223.096 115.53ZM220.912 117.6C219.978 118.087 218.898 118.342 217.648 118.342V120.342C219.179 120.342 220.582 120.027 221.836 119.374L220.912 117.6ZM217.648 118.342C215.819 118.342 214.429 117.64 213.38 116.205L211.766 117.386C213.2 119.346 215.194 120.342 217.648 120.342V118.342ZM213.38 116.205C212.305 114.736 211.71 112.64 211.71 109.806H209.71C209.71 112.896 210.357 115.46 211.766 117.386L213.38 116.205ZM211.71 109.806V109.566H209.71V109.806H211.71ZM210.667 109.925C210.667 112.665 211.207 114.959 212.395 116.708L214.049 115.584C213.163 114.279 212.667 112.426 212.667 109.925H210.667ZM212.397 116.711C213.628 118.51 215.413 119.419 217.631 119.419V117.419C216.044 117.419 214.89 116.813 214.047 115.581L212.397 116.711ZM217.631 119.419C219.307 119.419 220.803 119.049 222.073 118.26L221.017 116.561C220.122 117.117 219.009 117.419 217.631 117.419V119.419ZM222.079 118.256C223.358 117.448 224.289 116.276 224.883 114.791L223.026 114.049C222.572 115.184 221.897 116.006 221.011 116.565L222.079 118.256ZM224.955 114.42V105.755H222.955V114.42H224.955ZM224.901 105.433C224.323 103.736 223.432 102.38 222.183 101.453C220.931 100.524 219.403 100.09 217.666 100.09V102.09C219.062 102.09 220.148 102.434 220.992 103.059C221.839 103.688 222.527 104.665 223.008 106.078L224.901 105.433ZM217.666 100.09C215.463 100.09 213.678 100.983 212.424 102.75L214.055 103.907C214.919 102.689 216.085 102.09 217.666 102.09V100.09ZM212.421 102.754C211.203 104.488 210.667 106.927 210.667 109.925H212.667C212.667 107.113 213.179 105.154 214.058 103.903L212.421 102.754ZM236.875 108.08V109.08H237.875V108.08H236.875ZM228.842 108.08H227.842V109.08H228.842V108.08ZM228.842 107.157V106.157H227.842V107.157H228.842ZM236.875 107.157H237.875V106.157H236.875V107.157ZM236.875 107.08H228.842V109.08H236.875V107.08ZM229.842 108.08V107.157H227.842V108.08H229.842ZM228.842 108.157H236.875V106.157H228.842V108.157ZM235.875 107.157V108.08H237.875V107.157H235.875ZM249.453 119V120H250.453V119H249.453ZM248.53 119H247.53V120H248.53V119ZM248.53 95.2793H249.53V93.8355L248.178 94.3432L248.53 95.2793ZM241.386 97.9624H240.386V99.4062L241.738 98.8985L241.386 97.9624ZM241.386 96.9541L241.04 96.0159L240.386 96.257V96.9541H241.386ZM249.265 94.0488V93.0488H249.086L248.919 93.1106L249.265 94.0488ZM249.453 94.0488H250.453V93.0488H249.453V94.0488ZM249.453 118H248.53V120H249.453V118ZM249.53 119V95.2793H247.53V119H249.53ZM248.178 94.3432L241.035 97.0263L241.738 98.8985L248.881 96.2154L248.178 94.3432ZM242.386 97.9624V96.9541H240.386V97.9624H242.386ZM241.732 97.8923L249.611 94.9871L248.919 93.1106L241.04 96.0159L241.732 97.8923ZM249.265 95.0488H249.453V93.0488H249.265V95.0488ZM248.453 94.0488V119H250.453V94.0488H248.453ZM273.413 106.627H274.413L272.504 106.208L273.413 106.627ZM270.593 109.806L271.126 110.652L271.128 110.65L270.593 109.806ZM262.612 109.908L262.051 110.736L262.057 110.74L262.612 109.908ZM260.065 98.1504L260.973 98.5699L260.974 98.567L260.065 98.1504ZM272.302 96.2876L271.522 96.9136L271.524 96.9162L272.302 96.2876ZM274.335 103.5L275.335 103.5L275.335 103.496L274.335 103.5ZM271.533 115.975L272.295 116.623L272.296 116.621L271.533 115.975ZM263.278 119.342V120.342L263.291 120.342L263.278 119.342ZM262.458 119.342L261.459 119.305L261.42 120.342H262.458V119.342ZM262.492 118.419V117.419H261.529L261.493 118.382L262.492 118.419ZM263.227 118.419V119.419L263.237 119.419L263.227 118.419ZM273.413 104.645L274.376 104.912L274.413 104.781V104.645H273.413ZM271.618 96.9883L270.828 97.6014L270.833 97.6079L271.618 96.9883ZM260.869 98.7144L259.957 98.3043L259.955 98.3082L260.869 98.7144ZM260.852 106.405L259.943 106.823L259.945 106.827L260.852 106.405ZM272.504 106.208C271.985 107.335 271.179 108.25 270.057 108.961L271.128 110.65C272.559 109.743 273.632 108.539 274.321 107.046L272.504 106.208ZM270.059 108.96C268.965 109.65 267.723 110.002 266.303 110.002V112.002C268.074 112.002 269.691 111.557 271.126 110.652L270.059 108.96ZM266.303 110.002C265.125 110.002 264.089 109.691 263.167 109.076L262.057 110.74C263.322 111.583 264.747 112.002 266.303 112.002V110.002ZM263.172 109.08C262.238 108.447 261.496 107.575 260.951 106.435L259.146 107.297C259.832 108.732 260.799 109.888 262.051 110.736L263.172 109.08ZM260.951 106.435C260.405 105.293 260.125 104.029 260.125 102.628H258.125C258.125 104.303 258.462 105.865 259.146 107.297L260.951 106.435ZM260.125 102.628C260.125 101.13 260.413 99.7826 260.973 98.5699L259.158 97.7308C258.465 99.2297 258.125 100.867 258.125 102.628H260.125ZM260.974 98.567C261.533 97.3475 262.299 96.4242 263.263 95.7618L262.131 94.1132C260.84 95.0003 259.851 96.219 259.156 97.7337L260.974 98.567ZM263.263 95.7618C264.225 95.1014 265.275 94.7754 266.44 94.7754V92.7754C264.87 92.7754 263.425 93.2241 262.131 94.1132L263.263 95.7618ZM266.44 94.7754C268.766 94.7754 270.405 95.5219 271.522 96.9136L273.082 95.6616C271.51 93.7037 269.241 92.7754 266.44 92.7754V94.7754ZM271.524 96.9162C272.672 98.3362 273.325 100.483 273.335 103.503L275.335 103.496C275.324 100.227 274.621 97.5658 273.079 95.659L271.524 96.9162ZM273.335 103.5V106.354H275.335V103.5H273.335ZM273.335 106.354C273.335 110.426 272.429 113.366 270.769 115.33L272.296 116.621C274.374 114.164 275.335 110.689 275.335 106.354H273.335ZM270.771 115.328C269.136 117.251 266.692 118.299 263.266 118.342L263.291 120.342C267.133 120.294 270.192 119.097 272.295 116.623L270.771 115.328ZM263.278 118.342H262.458V120.342H263.278V118.342ZM263.457 119.379L263.492 118.456L261.493 118.382L261.459 119.305L263.457 119.379ZM262.492 119.419H263.227V117.419H262.492V119.419ZM263.237 119.419C266.77 119.383 269.604 118.296 271.57 116.033L270.06 114.721C268.562 116.445 266.337 117.387 263.217 117.419L263.237 119.419ZM271.57 116.033C273.518 113.79 274.413 110.6 274.413 106.627H272.413C272.413 110.333 271.575 112.977 270.06 114.721L271.57 116.033ZM266.303 111.079C268.201 111.079 269.908 110.516 271.387 109.387L270.174 107.797C269.055 108.651 267.778 109.079 266.303 109.079V111.079ZM271.387 109.387C272.867 108.258 273.865 106.753 274.376 104.912L272.449 104.377C272.049 105.817 271.292 106.944 270.174 107.797L271.387 109.387ZM274.413 104.645V103.585H272.413V104.645H274.413ZM274.413 103.585C274.413 100.584 273.793 98.1288 272.403 96.3686L270.833 97.6079C271.836 98.8784 272.413 100.821 272.413 103.585H274.413ZM272.408 96.3752C271.004 94.5658 268.987 93.6982 266.508 93.6982V95.6982C268.473 95.6982 269.863 96.3573 270.828 97.6014L272.408 96.3752ZM266.508 93.6982C265.078 93.6982 263.767 94.1242 262.606 94.965L263.779 96.5848C264.601 95.9901 265.501 95.6982 266.508 95.6982V93.6982ZM262.606 94.965C261.458 95.7965 260.578 96.9214 259.957 98.3043L261.781 99.1244C262.276 98.0236 262.945 97.1889 263.779 96.5848L262.606 94.965ZM259.955 98.3082C259.35 99.6696 259.048 101.113 259.048 102.628H261.048C261.048 101.386 261.294 100.22 261.782 99.1205L259.955 98.3082ZM259.048 102.628C259.048 104.119 259.344 105.522 259.943 106.823L261.76 105.986C261.288 104.963 261.048 103.848 261.048 102.628H259.048ZM259.945 106.827C260.548 108.122 261.399 109.168 262.507 109.929L263.639 108.281C262.857 107.743 262.226 106.989 261.758 105.983L259.945 106.827ZM262.507 109.929C263.628 110.699 264.905 111.079 266.303 111.079V109.079C265.286 109.079 264.409 108.809 263.639 108.281L262.507 109.929ZM304.208 95.04V96.04H305.208V95.04H304.208ZM295.151 95.04V94.04H294.151V95.04H295.151ZM295.151 119V120H296.151V119H295.151ZM294.228 119H293.228V120H294.228V119ZM294.228 95.04H295.228V94.04H294.228V95.04ZM285.17 95.04H284.17V96.04H285.17V95.04ZM285.17 94.1172V93.1172H284.17V94.1172H285.17ZM304.208 94.1172H305.208V93.1172H304.208V94.1172ZM304.208 94.04H295.151V96.04H304.208V94.04ZM294.151 95.04V119H296.151V95.04H294.151ZM295.151 118H294.228V120H295.151V118ZM295.228 119V95.04H293.228V119H295.228ZM294.228 94.04H285.17V96.04H294.228V94.04ZM286.17 95.04V94.1172H284.17V95.04H286.17ZM285.17 95.1172H304.208V93.1172H285.17V95.1172ZM303.208 94.1172V95.04H305.208V94.1172H303.208ZM314.941 101.175L314.856 102.172L315.814 102.254L315.933 101.299L314.941 101.175ZM313.745 101.073L313.83 100.076L313.787 100.073H313.745V101.073ZM309.797 102.611L310.488 103.333L310.492 103.329L309.797 102.611ZM307.712 106.883L306.728 106.706L306.712 106.794V106.883H307.712ZM307.712 119V120H308.712V119H307.712ZM306.789 119H305.789V120H306.789V119ZM306.789 100.509V99.5088H305.789V100.509H306.789ZM307.712 100.509H308.712V99.5088H307.712V100.509ZM307.712 104.354H306.712L308.644 104.717L307.712 104.354ZM315.043 100.355L316.036 100.479L316.133 99.6988L315.398 99.42L315.043 100.355ZM315.026 100.179L313.83 100.076L313.659 102.069L314.856 102.172L315.026 100.179ZM313.745 100.073C311.932 100.073 310.361 100.674 309.101 101.892L310.492 103.329C311.352 102.497 312.413 102.073 313.745 102.073V100.073ZM309.105 101.888C307.856 103.084 307.085 104.72 306.728 106.706L308.696 107.061C308.999 105.378 309.618 104.166 310.488 103.333L309.105 101.888ZM306.712 106.883V119H308.712V106.883H306.712ZM307.712 118H306.789V120H307.712V118ZM307.789 119V100.509H305.789V119H307.789ZM306.789 101.509H307.712V99.5088H306.789V101.509ZM306.712 100.509V104.354H308.712V100.509H306.712ZM308.644 104.717C309.085 103.585 309.729 102.724 310.568 102.095L309.368 100.495C308.201 101.37 307.342 102.548 306.78 103.991L308.644 104.717ZM310.568 102.095C311.364 101.498 312.399 101.167 313.745 101.167V99.167C312.059 99.167 310.577 99.5878 309.368 100.495L310.568 102.095ZM313.745 101.167C314.215 101.167 314.514 101.224 314.689 101.29L315.398 99.42C314.912 99.2355 314.345 99.167 313.745 99.167V101.167ZM314.051 100.231L313.949 101.051L315.933 101.299L316.036 100.479L314.051 100.231ZM329.775 119L328.814 119.278L329.024 120H329.775V119ZM329.433 115.616H330.433V112.083L328.581 115.092L329.433 115.616ZM318.017 117.958L317.348 118.7L317.356 118.708L318.017 117.958ZM318.752 110.25L319.305 111.083L319.307 111.082L318.752 110.25ZM324.87 108.678V107.678L324.861 107.678L324.87 108.678ZM329.433 108.678V109.678H330.433V108.678H329.433ZM327.963 102.372L327.302 103.121L327.306 103.125L327.963 102.372ZM319.572 102.389L318.963 101.595L319.572 102.389ZM317.88 105.602L317.843 106.601L318.88 106.639V105.602H317.88ZM316.958 105.567H315.958V106.531L316.921 106.567L316.958 105.567ZM318.94 101.739L318.319 100.956L318.94 101.739ZM328.544 101.671L327.895 102.431L327.899 102.435L328.544 101.671ZM330.356 105.875H331.356V105.866L331.356 105.856L330.356 105.875ZM330.834 118.846H331.834V118.637L331.751 118.445L330.834 118.846ZM330.834 119V120H331.834V119H330.834ZM326.613 117.274L326.087 116.423L326.084 116.425L326.613 117.274ZM329.433 114.01L330.346 114.418L330.433 114.223V114.01H329.433ZM329.433 109.618H330.433V108.618H329.433V109.618ZM319.094 111.19L318.495 110.389L318.494 110.39L319.094 111.19ZM330.735 118.722C330.547 118.071 330.433 117.054 330.433 115.616H328.433C328.433 117.118 328.547 118.357 328.814 119.278L330.735 118.722ZM328.581 115.092C327.95 116.118 327.091 116.91 325.986 117.478L326.899 119.257C328.323 118.526 329.458 117.484 330.285 116.14L328.581 115.092ZM325.986 117.478C324.879 118.046 323.609 118.342 322.153 118.342V120.342C323.887 120.342 325.477 119.988 326.899 119.257L325.986 117.478ZM322.153 118.342C320.63 118.342 319.505 117.935 318.678 117.207L317.356 118.708C318.626 119.826 320.257 120.342 322.153 120.342V118.342ZM318.687 117.215C317.876 116.484 317.462 115.549 317.462 114.317H315.462C315.462 116.071 316.085 117.562 317.348 118.7L318.687 117.215ZM317.462 114.317C317.462 112.985 318.031 111.929 319.305 111.083L318.199 109.417C316.419 110.599 315.462 112.254 315.462 114.317H317.462ZM319.307 111.082C320.633 110.198 322.462 109.699 324.879 109.678L324.861 107.678C322.197 107.702 319.947 108.251 318.197 109.418L319.307 111.082ZM324.87 109.678H329.433V107.678H324.87V109.678ZM330.433 108.678V105.978H328.433V108.678H330.433ZM330.433 105.978C330.433 104.2 329.86 102.699 328.621 101.618L327.306 103.125C328.026 103.753 328.433 104.656 328.433 105.978H330.433ZM328.625 101.622C327.412 100.551 325.751 100.09 323.793 100.09V102.09C325.459 102.09 326.578 102.483 327.302 103.121L328.625 101.622ZM323.793 100.09C321.929 100.09 320.297 100.572 318.963 101.595L320.181 103.182C321.104 102.474 322.285 102.09 323.793 102.09V100.09ZM318.963 101.595C317.621 102.626 316.88 103.976 316.88 105.602H318.88C318.88 104.675 319.268 103.883 320.181 103.182L318.963 101.595ZM317.917 104.602L316.995 104.568L316.921 106.567L317.843 106.601L317.917 104.602ZM317.958 105.567C317.958 104.409 318.446 103.407 319.561 102.523L318.319 100.956C316.791 102.167 315.958 103.718 315.958 105.567H317.958ZM319.561 102.523C320.683 101.633 322.073 101.167 323.793 101.167V99.167C321.686 99.167 319.84 99.7487 318.319 100.956L319.561 102.523ZM323.793 101.167C325.62 101.167 326.95 101.624 327.895 102.431L329.194 100.911C327.792 99.7127 325.954 99.167 323.793 99.167V101.167ZM327.899 102.435C328.813 103.207 329.326 104.313 329.356 105.894L331.356 105.856C331.317 103.814 330.623 102.118 329.19 100.907L327.899 102.435ZM329.356 105.875V114.71H331.356V105.875H329.356ZM329.356 114.71C329.356 115.747 329.397 116.64 329.482 117.38C329.566 118.107 329.7 118.748 329.918 119.247L331.751 118.445C331.65 118.215 331.544 117.803 331.469 117.15C331.395 116.512 331.356 115.702 331.356 114.71H329.356ZM329.834 118.846V119H331.834V118.846H329.834ZM330.834 118H329.775V120H330.834V118ZM322.153 119.436C324.037 119.436 325.715 119.013 327.143 118.122L326.084 116.425C325.028 117.084 323.732 117.436 322.153 117.436V119.436ZM327.139 118.125C328.57 117.24 329.641 115.994 330.346 114.418L328.52 113.602C327.972 114.828 327.163 115.759 326.087 116.423L327.139 118.125ZM330.433 114.01V109.618H328.433V114.01H330.433ZM329.433 108.618H325.161V110.618H329.433V108.618ZM325.161 108.618C322.406 108.618 320.137 109.161 318.495 110.389L319.693 111.991C320.853 111.123 322.629 110.618 325.161 110.618V108.618ZM318.494 110.39C317.136 111.408 316.385 112.755 316.385 114.386H318.385C318.385 113.464 318.773 112.681 319.694 111.99L318.494 110.39ZM316.385 114.386C316.385 115.821 316.974 117.047 318.077 118.01L319.393 116.504C318.695 115.895 318.385 115.206 318.385 114.386H316.385ZM318.077 118.01C319.187 118.979 320.572 119.436 322.153 119.436V117.436C320.977 117.436 320.083 117.106 319.393 116.504L318.077 118.01ZM346.728 117.086L346.097 116.31L346.093 116.313L346.728 117.086ZM348.522 113.395V112.395H347.586L347.525 113.329L348.522 113.395ZM349.445 113.395L350.444 113.445L350.498 112.395H349.445V113.395ZM347.377 117.718L348.021 118.484L348.025 118.48L347.377 117.718ZM337.072 116.83L336.295 117.459L336.298 117.462L337.072 116.83ZM337.072 102.679L336.298 102.047L336.295 102.05L337.072 102.679ZM347.412 101.927L346.735 102.663L347.412 101.927ZM349.445 106.61V107.61H350.487L350.444 106.569L349.445 106.61ZM348.522 106.61L347.524 106.658L347.569 107.61H348.522V106.61ZM346.762 102.611L346.078 103.341L346.086 103.348L346.762 102.611ZM337.705 103.329L336.918 102.711L336.918 102.711L337.705 103.329ZM337.722 116.214L336.938 116.835L336.943 116.842L337.722 116.214ZM342.592 119.419C344.451 119.419 346.068 118.922 347.363 117.859L346.093 116.313C345.223 117.027 344.083 117.419 342.592 117.419V119.419ZM347.359 117.862C348.695 116.776 349.402 115.273 349.52 113.46L347.525 113.329C347.438 114.66 346.948 115.618 346.097 116.31L347.359 117.862ZM348.522 114.395H349.445V112.395H348.522V114.395ZM348.447 113.344C348.369 114.876 347.794 116.053 346.73 116.956L348.025 118.48C349.536 117.196 350.34 115.491 350.444 113.445L348.447 113.344ZM346.734 116.953C345.65 117.864 344.292 118.342 342.592 118.342V120.342C344.698 120.342 346.53 119.737 348.021 118.484L346.734 116.953ZM342.592 118.342C340.556 118.342 339.01 117.621 337.847 116.197L336.298 117.462C337.869 119.387 340.003 120.342 342.592 120.342V118.342ZM337.85 116.2C336.679 114.755 336.039 112.729 336.039 110.011H334.039C334.039 113.035 334.753 115.554 336.295 117.459L337.85 116.2ZM336.039 110.011V109.396H334.039V110.011H336.039ZM336.039 109.396C336.039 106.752 336.676 104.758 337.85 103.308L336.295 102.05C334.757 103.95 334.039 106.433 334.039 109.396H336.039ZM337.847 103.312C339.012 101.885 340.548 101.167 342.558 101.167V99.167C339.988 99.167 337.867 100.124 336.298 102.047L337.847 103.312ZM342.558 101.167C344.302 101.167 345.668 101.682 346.735 102.663L348.089 101.191C346.604 99.8255 344.733 99.167 342.558 99.167V101.167ZM346.735 102.663C347.79 103.634 348.376 104.932 348.446 106.651L350.444 106.569C350.355 104.392 349.585 102.568 348.089 101.191L346.735 102.663ZM349.445 105.61H348.522V107.61H349.445V105.61ZM349.521 106.562C349.431 104.67 348.751 103.077 347.438 101.874L346.086 103.348C346.961 104.15 347.455 105.223 347.524 106.658L349.521 106.562ZM347.446 101.881C346.149 100.666 344.489 100.09 342.558 100.09V102.09C344.068 102.09 345.211 102.528 346.079 103.341L347.446 101.881ZM342.558 100.09C340.22 100.09 338.3 100.954 336.918 102.711L338.491 103.947C339.457 102.718 340.772 102.09 342.558 102.09V100.09ZM336.918 102.711C335.571 104.427 334.961 106.737 334.961 109.515H336.961C336.961 107.007 337.514 105.192 338.491 103.946L336.918 102.711ZM334.961 109.515V110.113H336.961V109.515H334.961ZM334.961 110.113C334.961 112.843 335.581 115.122 336.938 116.835L338.505 115.593C337.516 114.344 336.961 112.556 336.961 110.113H334.961ZM336.943 116.842C338.337 118.571 340.26 119.419 342.592 119.419V117.419C340.801 117.419 339.476 116.797 338.5 115.587L336.943 116.842ZM357.734 109.002L358.495 108.354L357.793 107.529L357.027 108.295L357.734 109.002ZM357.7 109.037L358.352 109.795L358.38 109.77L358.407 109.744L357.7 109.037ZM355.017 111.344L354.365 110.586L354.017 110.885V111.344H355.017ZM355.017 119V120H356.017V119H355.017ZM354.094 119H353.094V120H354.094V119ZM354.094 92.75V91.75H353.094V92.75H354.094ZM355.017 92.75H356.017V91.75H355.017V92.75ZM355.017 110.335H354.017V112.656L355.703 111.062L355.017 110.335ZM357.187 108.285L356.508 107.55L356.5 107.558L357.187 108.285ZM365.595 100.509V99.5088H365.204L364.916 99.7746L365.595 100.509ZM366.911 100.509L367.591 101.242L369.46 99.5088H366.911V100.509ZM358.417 108.387L357.737 107.654L357.035 108.305L357.656 109.035L358.417 108.387ZM367.441 119V120H369.604L368.203 118.352L367.441 119ZM366.245 119L365.483 119.648L365.783 120H366.245V119ZM357.027 108.295L356.993 108.33L358.407 109.744L358.441 109.71L357.027 108.295ZM357.048 108.278L354.365 110.586L355.669 112.102L358.352 109.795L357.048 108.278ZM354.017 111.344V119H356.017V111.344H354.017ZM355.017 118H354.094V120H355.017V118ZM355.094 119V92.75H353.094V119H355.094ZM354.094 93.75H355.017V91.75H354.094V93.75ZM354.017 92.75V110.335H356.017V92.75H354.017ZM355.703 111.062L357.874 109.012L356.5 107.558L354.33 109.609L355.703 111.062ZM357.866 109.019L366.274 101.243L364.916 99.7746L356.508 107.55L357.866 109.019ZM365.595 101.509H366.911V99.5088H365.595V101.509ZM366.231 99.7756L357.737 107.654L359.098 109.12L367.591 101.242L366.231 99.7756ZM357.656 109.035L366.679 119.648L368.203 118.352L359.179 107.739L357.656 109.035ZM367.441 118H366.245V120H367.441V118ZM367.006 118.352L358.495 108.354L356.972 109.651L365.483 119.648L367.006 118.352ZM372.858 118.146L372.313 118.983L372.322 118.989L372.858 118.146ZM372.722 101.363L373.276 102.195L372.722 101.363ZM383.659 109.139V110.139H384.659V109.139H383.659ZM369.799 109.139V108.139H368.799V109.139H369.799ZM370.739 114.334L369.84 114.772L369.845 114.782L370.739 114.334ZM373.354 117.342L372.803 118.177L372.807 118.18L373.354 117.342ZM380.139 117.821L380.567 118.725L380.572 118.722L380.139 117.821ZM382.463 115.89L383.042 115.074L382.261 114.519L381.673 115.276L382.463 115.89ZM383.112 116.351L383.935 116.92L384.496 116.108L383.692 115.536L383.112 116.351ZM372.055 103.106L372.784 103.791L372.787 103.788L372.055 103.106ZM369.851 108.216L368.856 108.112L368.741 109.216H369.851V108.216ZM382.736 108.216V109.216H383.736V108.216H382.736ZM381.933 104.508L381.033 104.944L381.039 104.955L381.933 104.508ZM379.746 101.996L379.198 102.832L379.204 102.836L379.21 102.84L379.746 101.996ZM376.977 118.342C375.674 118.342 374.487 117.997 373.395 117.302L372.322 118.989C373.736 119.889 375.295 120.342 376.977 120.342V118.342ZM373.404 117.308C372.319 116.601 371.461 115.633 370.829 114.38L369.043 115.28C369.824 116.83 370.914 118.072 372.313 118.983L373.404 117.308ZM370.829 114.38C370.199 113.13 369.876 111.731 369.876 110.165H367.876C367.876 112.016 368.26 113.727 369.043 115.28L370.829 114.38ZM369.876 110.165V109.396H367.876V110.165H369.876ZM369.876 109.396C369.876 107.824 370.19 106.407 370.803 105.129L369 104.263C368.247 105.833 367.876 107.549 367.876 109.396H369.876ZM370.803 105.129C371.417 103.85 372.244 102.884 373.276 102.195L372.167 100.531C370.807 101.438 369.754 102.694 369 104.263L370.803 105.129ZM373.276 102.195C374.311 101.505 375.424 101.167 376.635 101.167V99.167C375.021 99.167 373.524 99.6263 372.167 100.531L373.276 102.195ZM376.635 101.167C378.428 101.167 379.837 101.791 380.947 103.037L382.44 101.706C380.93 100.012 378.967 99.167 376.635 99.167V101.167ZM380.947 103.037C382.061 104.286 382.659 105.963 382.659 108.165H384.659C384.659 105.582 383.947 103.397 382.44 101.706L380.947 103.037ZM382.659 108.165V109.139H384.659V108.165H382.659ZM383.659 108.139H369.799V110.139H383.659V108.139ZM368.799 109.139V110.147H370.799V109.139H368.799ZM368.799 110.147C368.799 111.795 369.144 113.341 369.84 114.772L371.638 113.897C371.081 112.753 370.799 111.508 370.799 110.147H368.799ZM369.845 114.782C370.555 116.202 371.54 117.344 372.803 118.177L373.905 116.508C372.958 115.883 372.199 115.019 371.634 113.887L369.845 114.782ZM372.807 118.18C374.082 119.012 375.479 119.436 376.977 119.436V117.436C375.878 117.436 374.859 117.131 373.901 116.505L372.807 118.18ZM376.977 119.436C378.325 119.436 379.534 119.214 380.567 118.725L379.711 116.917C379.012 117.248 378.113 117.436 376.977 117.436V119.436ZM380.572 118.722C381.605 118.225 382.498 117.476 383.253 116.503L381.673 115.276C381.084 116.036 380.426 116.573 379.706 116.919L380.572 118.722ZM381.884 116.705L382.533 117.166L383.692 115.536L383.042 115.074L381.884 116.705ZM382.29 115.782C381.122 117.471 379.406 118.342 376.977 118.342V120.342C379.972 120.342 382.345 119.219 383.935 116.92L382.29 115.782ZM376.635 100.09C374.551 100.09 372.762 100.882 371.324 102.425L372.787 103.788C373.855 102.642 375.119 102.09 376.635 102.09V100.09ZM371.327 102.421C369.903 103.936 369.092 105.853 368.856 108.112L370.845 108.32C371.042 106.432 371.701 104.943 372.784 103.791L371.327 102.421ZM369.851 109.216H382.736V107.216H369.851V109.216ZM383.736 108.216V107.994H381.736V108.216H383.736ZM383.736 107.994C383.736 106.593 383.436 105.277 382.828 104.061L381.039 104.955C381.501 105.881 381.736 106.889 381.736 107.994H383.736ZM382.833 104.072C382.235 102.837 381.386 101.852 380.281 101.151L379.21 102.84C379.974 103.324 380.583 104.014 381.033 104.944L382.833 104.072ZM380.293 101.159C379.2 100.444 377.972 100.09 376.635 100.09V102.09C377.6 102.09 378.445 102.34 379.198 102.832L380.293 101.159ZM396.118 101.175L396.032 102.172L396.991 102.254L397.11 101.299L396.118 101.175ZM394.921 101.073L395.007 100.076L394.964 100.073H394.921V101.073ZM390.974 102.611L391.665 103.333L391.669 103.329L390.974 102.611ZM388.889 106.883L387.905 106.706L387.889 106.794V106.883H388.889ZM388.889 119V120H389.889V119H388.889ZM387.966 119H386.966V120H387.966V119ZM387.966 100.509V99.5088H386.966V100.509H387.966ZM388.889 100.509H389.889V99.5088H388.889V100.509ZM388.889 104.354H387.889L389.821 104.717L388.889 104.354ZM396.22 100.355L397.212 100.479L397.31 99.6988L396.575 99.42L396.22 100.355ZM396.203 100.179L395.007 100.076L394.836 102.069L396.032 102.172L396.203 100.179ZM394.921 100.073C393.109 100.073 391.537 100.674 390.278 101.892L391.669 103.329C392.529 102.497 393.59 102.073 394.921 102.073V100.073ZM390.282 101.888C389.033 103.084 388.262 104.72 387.905 106.706L389.873 107.061C390.176 105.378 390.795 104.166 391.665 103.333L390.282 101.888ZM387.889 106.883V119H389.889V106.883H387.889ZM388.889 118H387.966V120H388.889V118ZM388.966 119V100.509H386.966V119H388.966ZM387.966 101.509H388.889V99.5088H387.966V101.509ZM387.889 100.509V104.354H389.889V100.509H387.889ZM389.821 104.717C390.261 103.585 390.906 102.724 391.745 102.095L390.545 100.495C389.378 101.37 388.519 102.548 387.957 103.991L389.821 104.717ZM391.745 102.095C392.54 101.498 393.576 101.167 394.921 101.167V99.167C393.236 99.167 391.754 99.5878 390.545 100.495L391.745 102.095ZM394.921 101.167C395.392 101.167 395.691 101.224 395.866 101.29L396.575 99.42C396.088 99.2355 395.522 99.167 394.921 99.167V101.167ZM395.228 100.231L395.125 101.051L397.11 101.299L397.212 100.479L395.228 100.231Z" fill="black"/>
<defs>
<clipPath id="clip0">
<rect width="124.886" height="124.883" fill="white" transform="translate(46.3345 0.431593) rotate(21.5655)"/>
</clipPath>
</defs>
</svg>
